<svg width="23" height="22" viewBox="0 0 23 22" fill="none" xmlns="http://www.w3.org/2000/svg">
<path d="M21.5833 10.0833H12.4167V0.916667C12.4167 0.673552 12.3201 0.440394 12.1482 0.268485C11.9763 0.0965771 11.7431 0 11.5 0V0C11.2569 0 11.0237 0.0965771 10.8518 0.268485C10.6799 0.440394 10.5833 0.673552 10.5833 0.916667V10.0833H1.41667C1.17356 10.0833 0.940401 10.1799 0.768493 10.3518C0.596585 10.5237 0.500008 10.7569 0.500008 11H0.500008C0.500008 11.2431 0.596585 11.4763 0.768493 11.6482C0.940401 11.8201 1.17356 11.9167 1.41667 11.9167H10.5833V21.0833C10.5833 21.3264 10.6799 21.5596 10.8518 21.7315C11.0237 21.9034 11.2569 22 11.5 22C11.7431 22 11.9763 21.9034 12.1482 21.7315C12.3201 21.5596 12.4167 21.3264 12.4167 21.0833V11.9167H21.5833C21.8265 11.9167 22.0596 11.8201 22.2315 11.6482C22.4034 11.4763 22.5 11.2431 22.5 11C22.5 10.7569 22.4034 10.5237 22.2315 10.3518C22.0596 10.1799 21.8265 10.0833 21.5833 10.0833Z" fill="#FCFEFF"/>
</svg>
